<?xml version="1.0" encoding="UTF-8" standalone="no"?>
<svg width="115px" height="121px" viewBox="0 0 115 121" version="1.1" xmlns="http://www.w3.org/2000/svg" xmlns:xlink="http://www.w3.org/1999/xlink" xmlns:sketch="http://www.bohemiancoding.com/sketch/ns">
    <!-- Generator: Sketch 3.5.2 (25235) - http://www.bohemiancoding.com/sketch -->
    <title>icon globe</title>
    <desc>Created with Sketch.</desc>
    <defs>
        <path id="path-1" d="M0,0.287598715 L117.647826,0.287598715 L117.647826,121.276567 L0,121.276567 L0,0.287598715 Z"></path>
    </defs>
    <g id="yes" stroke="none" stroke-width="1" fill="none" fill-rule="evenodd" sketch:type="MSPage">
        <g id="hot-air-balloons" sketch:type="MSArtboardGroup" transform="translate(-446.000000, -994.000000)">
            <g id="step-1" sketch:type="MSLayerGroup" transform="translate(443.000000, 993.000000)">
                <g id="icon-globe" transform="translate(0.126754, 0.354810)">
                    <path d="M109.043865,69.4155016 C107.679463,83.9158477 109.677987,96.6420908 99.8101124,105.857377 C88.2694382,116.637132 72.344486,122.616066 55.3860535,121.02128 C23.9242455,118.062131 0.819507415,90.1607246 3.77874349,58.7015832 L109.043865,69.4155016 Z" id="Fill-1" fill="#5B9B60" sketch:type="MSShapeGroup"></path>
                    <path d="M99.4783245,47.3960084 L3.77874349,58.7015832 C6.736247,27.2415755 34.638482,4.13838959 66.1002899,7.09753781 C83.0396641,8.68885962 97.5569001,17.5134624 106.887676,30.2319092 C114.885237,41.1338063 100.843593,32.8757383 99.4783245,47.3960084" id="Fill-3" fill="#4D8756" sketch:type="MSShapeGroup"></path>
                    <path d="M60.5842947,64.0436427 L3.77926326,58.7014099 C6.73676677,27.2422685 34.6390018,4.13821633 66.0999434,7.09736456 L60.5842947,64.0436427 Z" id="Fill-5" fill="#6BC5AE" sketch:type="MSShapeGroup"></path>
                    <path d="M34.7048396,40.7044872 C39.3957832,27.0920589 53.7752796,7.26247394 66.0999434,7.09701806 L62.1999198,47.3963549 L34.7048396,40.7044872 Z" id="Fill-7" fill="#81BF82" sketch:type="MSShapeGroup"></path>
                    <path d="M60.5842947,64.0436427 L3.77926326,58.7014099 C5.13760114,44.2565046 11.7551668,31.575307 21.5589358,22.3678168 C21.5589358,22.3678168 26.2108965,32.8556411 39.485877,39.3075544 C52.759125,45.7612003 62.345456,45.9223249 62.345456,45.9223249 L60.5842947,64.0436427 Z" id="Fill-9" fill="#5B9B60" sketch:type="MSShapeGroup"></path>
                    <path d="M60.5842947,64.0436427 L29.4438792,61.1139474 C29.4438792,61.1139474 30.5189413,53.7446634 31.3271869,49.7676583 C32.2298579,45.3202733 35.9817465,37.4017798 35.9817465,37.4017798 C37.0750006,38.0644696 38.2427553,38.7037704 39.485877,39.3075544 C52.759125,45.7612003 62.345456,45.9223249 62.345456,45.9223249 L60.5842947,64.0436427 Z" id="Fill-11" fill="#5DC5C5" sketch:type="MSShapeGroup"></path>
                    <g id="Group-15">
                        <mask id="mask-2" sketch:name="Clip 14" fill="white">
                            <use xlink:href="#path-1"></use>
                        </mask>
                        <g id="Clip-14"></g>
                        <path d="M60.5876732,64.0436427 L117.392705,69.3867417 C118.751909,54.9409701 114.614522,41.2479795 106.699259,30.374669 C106.699259,30.374669 100.172653,39.8099859 85.9282978,43.6743771 C71.6848085,47.5405008 62.2362172,45.9119297 62.2362172,45.9119297 L60.5876732,64.0436427 Z" id="Fill-13" fill="#78CABC" sketch:type="MSShapeGroup" mask="url(#mask-2)"></path>
                    </g>
                    <path d="M60.5910517,63.9598752 L3.7860203,58.6176425 C2.42768243,73.0616816 6.5650687,86.7564047 14.4811985,97.6297152 C14.4811985,97.6297152 21.007804,88.1935321 35.2504271,84.3282746 C49.495649,80.4621509 58.9442403,82.0915882 58.9442403,82.0915882 L60.5910517,63.9598752 Z" id="Fill-16" fill="#7FCBB9" sketch:type="MSShapeGroup"></path>
                    <path d="M60.5944302,63.9598752 L117.400328,69.3029743 C116.042856,83.7461471 109.425291,96.4299435 99.6197892,105.634835 C99.6197892,105.634835 94.9678285,95.1487432 81.6945805,88.6950973 C68.4204662,82.2423177 58.8341352,82.0811931 58.8341352,82.0811931 L60.5944302,63.9598752 Z" id="Fill-18" fill="#A9DBD6" sketch:type="MSShapeGroup"></path>
                    <path d="M30.8268196,81.9373937 C32.8972453,96.1856578 43.3290723,118.347218 55.4051118,120.809998 L59.0885637,80.4898713 L30.8268196,81.9373937 Z" id="Fill-20" fill="#4D8756" sketch:type="MSShapeGroup"></path>
                    <path d="M60.6036995,63.832968 L29.463284,60.9041389 C29.463284,60.9041389 29.146223,68.3461888 29.1982002,72.4046225 C29.2553752,76.9412323 31.4644068,85.4201969 31.4644068,85.4201969 C32.6633479,84.9723398 33.9298593,84.5634645 35.2622086,84.2013674 C49.5065642,80.3361099 58.9560218,81.964681 58.9560218,81.964681 L60.6036995,63.832968 Z" id="Fill-22" fill="#5B9B60" sketch:type="MSShapeGroup"></path>
                    <path d="M90.3357924,45.9350589 C88.2653666,31.6885274 77.8335397,9.5252348 65.7575002,7.06418676 L62.0740483,47.3843139 L90.3357924,45.9350589 Z" id="Fill-24" fill="#5EA063" sketch:type="MSShapeGroup"></path>
                    <path d="M60.5580462,64.0419968 L91.699328,66.9699596 C91.699328,66.9699596 92.016389,59.528776 91.965278,55.4694761 C91.9055042,50.932 89.6982052,42.4539017 89.6982052,42.4539017 C88.4992641,42.9008925 87.2336189,43.3115003 85.8995371,43.6727312 C71.6560478,47.5388549 62.2074565,45.9094176 62.2074565,45.9094176 L60.5580462,64.0419968 Z" id="Fill-26" fill="#A9DBD6" sketch:type="MSShapeGroup"></path>
                    <path d="M86.457859,87.1704776 C81.7669154,100.781173 67.387419,120.610758 55.0636215,120.777947 L58.9619126,80.4777436 L86.457859,87.1704776 Z" id="Fill-28" fill="#45754B" sketch:type="MSShapeGroup"></path>
                    <path d="M60.5784039,63.8304558 L91.7188194,66.7592849 C91.7188194,66.7592849 90.6428911,74.1303014 89.8346454,78.1073065 C88.9319744,82.5529589 85.1818184,90.4723187 85.1818184,90.4723187 C84.0894306,89.8087627 82.9216759,89.1703282 81.6768216,88.5656779 C68.4053061,82.1137645 58.8181089,81.9517737 58.8181089,81.9517737 L60.5784039,63.8304558 Z" id="Fill-30" fill="#78CABC" sketch:type="MSShapeGroup"></path>
                    <path d="M31.4460415,31.6838291 C29.6944094,31.6838291 28.2754314,30.2631608 28.2754314,28.5133132 C28.2754314,26.761733 29.6944094,25.3419309 31.4460415,25.3419309 C33.1959411,25.3419309 34.614919,26.761733 34.614919,28.5133132 C34.614919,30.2631608 33.1959411,31.6838291 31.4460415,31.6838291 M31.4460415,22.5802903 C28.2026633,22.5802903 25.5743488,25.1989978 25.5743488,28.4414135 C25.5743488,34.0487222 31.4460415,41.3608329 31.4460415,41.3608329 C31.4460415,41.3608329 37.3186005,34.0478559 37.3186005,28.4414135 C37.3186005,25.1998641 34.690286,22.5802903 31.4460415,22.5802903" id="Fill-32" fill="#D55640" sketch:type="MSShapeGroup"></path>
                    <path d="M92.5548729,12.0417236 C90.4879123,12.0417236 88.8159786,10.3681069 88.8159786,8.30467278 C88.8159786,6.23863984 90.4879123,4.56502322 92.5548729,4.56502322 C94.617502,4.56502322 96.2903021,6.23863984 96.2903021,8.30467278 C96.2903021,10.3681069 94.617502,12.0417236 92.5548729,12.0417236 M92.5548729,1.31047993 C88.7302162,1.31047993 85.6306416,4.39783481 85.6306416,8.21891292 C85.6306416,14.8310846 92.5548729,23.4512497 92.5548729,23.4512497 C92.5548729,23.4512497 99.4782379,14.8276195 99.4782379,8.21891292 C99.4782379,4.39870107 96.3795296,1.31047993 92.5548729,1.31047993" id="Fill-42" fill="#D55640" sketch:type="MSShapeGroup"></path>
                    <path d="M78.3992125,86.9627563 C76.933455,86.9627563 75.7457757,85.774246 75.7457757,84.3093983 C75.7457757,82.8436844 76.933455,81.655174 78.3992125,81.655174 C79.8632374,81.655174 81.051783,82.8436844 81.051783,84.3093983 C81.051783,85.774246 79.8632374,86.9627563 78.3992125,86.9627563 M78.3992125,79.3457217 C75.6851356,79.3457217 73.4856331,81.53563 73.4856331,84.24876 C73.4856331,88.9395644 78.3992125,95.0579672 78.3992125,95.0579672 C78.3992125,95.0579672 83.3127918,88.9386981 83.3127918,84.24876 C83.3127918,81.5373625 81.1132894,79.3457217 78.3992125,79.3457217" id="Fill-46" fill="#FEFEFE" sketch:type="MSShapeGroup"></path>
                    <path d="M46.232173,29.4642285 C45.1753029,29.4642285 44.321144,28.6083624 44.321144,27.5523901 C44.321144,26.4964177 45.1753029,25.6414179 46.232173,25.6414179 C47.2873104,25.6414179 48.1423356,26.4964177 48.1423356,27.5523901 C48.1423356,28.6083624 47.2873104,29.4642285 46.232173,29.4642285 M46.232173,23.9773301 C44.2769634,23.9773301 42.6925247,25.5539255 42.6925247,27.509077 C42.6925247,30.8892282 46.232173,35.2958988 46.232173,35.2958988 C46.232173,35.2958988 49.7718213,30.8874956 49.7718213,27.509077 C49.7718213,25.555658 48.1873825,23.9773301 46.232173,23.9773301" id="Fill-52" fill="#FEFEFE" sketch:type="MSShapeGroup"></path>
                    <path d="M55.3679481,62.4752768 C54.2357111,62.4752768 53.3200458,61.5579062 53.3200458,60.4283016 C53.3200458,59.2978308 54.2357111,58.3804602 55.3679481,58.3804602 C56.4967199,58.3804602 57.4132515,59.2978308 57.4132515,60.4283016 C57.4132515,61.5579062 56.4967199,62.4752768 55.3679481,62.4752768 M55.3679481,56.5994272 C53.2732663,56.5994272 51.5762103,58.2886365 51.5762103,60.3823898 C51.5762103,64.001629 55.3679481,68.7218863 55.3679481,68.7218863 C55.3679481,68.7218863 59.1579533,64.0007628 59.1579533,60.3823898 C59.1579533,58.2895027 57.4608972,56.5994272 55.3679481,56.5994272" id="Fill-56" fill="#FEFEFE" sketch:type="MSShapeGroup"></path>
                    <path d="M68.3343572,20.5385331 C66.8685998,20.5385331 65.6809204,19.3500227 65.6809204,17.885175 C65.6809204,16.4194611 66.8685998,15.231817 68.3343572,15.231817 C69.7975158,15.231817 70.9860615,16.4194611 70.9860615,17.885175 C70.9860615,19.3500227 69.7975158,20.5385331 68.3343572,20.5385331 M68.3343572,12.9214984 C65.6202804,12.9214984 63.4216442,15.1114067 63.4216442,17.8245368 C63.4216442,22.5153411 68.3343572,28.6337439 68.3343572,28.6337439 C68.3343572,28.6337439 73.2479366,22.5136086 73.2479366,17.8245368 C73.2479366,15.1131392 71.0493004,12.9214984 68.3343572,12.9214984" id="Fill-58" fill="#FEFEFE" sketch:type="MSShapeGroup"></path>
                </g>
            </g>
        </g>
    </g>
</svg>
