<?xml version="1.0" encoding="UTF-8" standalone="no"?>
<svg width="145px" height="84px" viewBox="0 0 145 84" version="1.1" xmlns="http://www.w3.org/2000/svg" xmlns:xlink="http://www.w3.org/1999/xlink" xmlns:sketch="http://www.bohemiancoding.com/sketch/ns">
    <!-- Generator: Sketch 3.5.2 (25235) - http://www.bohemiancoding.com/sketch -->
    <title>Page 1</title>
    <desc>Created with Sketch.</desc>
    <defs>
        <path id="path-1" d="M0,0.64842327 L144.641765,0.64842327 L144.641765,83.0746367 L0,83.0746367"></path>
    </defs>
    <g id="yes" stroke="none" stroke-width="1" fill="none" fill-rule="evenodd" sketch:type="MSPage">
        <g id="step-4-copy" sketch:type="MSArtboardGroup" transform="translate(-443.000000, -202.000000)">
            <g id="step-4" sketch:type="MSLayerGroup" transform="translate(443.000000, 196.000000)">
                <g id="Page-1" transform="translate(0.000000, 6.000000)">
                    <path d="M115.095792,82.352696 L142.527331,82.352696 C142.527331,82.352696 143.710226,67.7256786 128.928087,67.7256786 C114.145212,67.7249434 115.095792,82.352696 115.095792,82.352696" id="Fill-1" fill="#A5767C" sketch:type="MSShapeGroup"></path>
                    <path d="M130.459454,45.1602547 C138.291995,45.1602547 144.641691,51.5099506 144.641691,59.342492 C144.641691,67.1750334 138.291995,73.5247293 130.459454,73.5247293 C122.626912,73.5247293 116.277216,67.1750334 116.277216,59.342492 C116.277216,51.5099506 122.626912,45.1602547 130.459454,45.1602547" id="Fill-3" fill="#A5767C" sketch:type="MSShapeGroup"></path>
                    <path d="M0.0124244368,82.352696 L27.4432284,82.352696 C27.4432284,82.352696 28.626123,67.7256786 13.8439839,67.7256786 C-0.939625603,67.7249434 0.0124244368,82.352696 0.0124244368,82.352696" id="Fill-5" fill="#A5767C" sketch:type="MSShapeGroup"></path>
                    <path d="M15.3746157,45.1595195 C23.2078922,45.1595195 29.5575881,51.5092154 29.5575881,59.342492 C29.5575881,67.1757686 23.2078922,73.5254645 15.3746157,73.5254645 C7.54133908,73.5254645 1.19164317,67.1757686 1.19164317,59.342492 C1.19164317,51.5092154 7.54133908,45.1595195 15.3746157,45.1595195" id="Fill-7" fill="#A5767C" sketch:type="MSShapeGroup"></path>
                    <path d="M19.2644201,82.352696 L56.7031447,82.352696 C56.7031447,82.352696 58.3175863,62.3897873 38.1422123,62.3897873 C17.965368,62.3890522 19.2644201,82.352696 19.2644201,82.352696" id="Fill-9" fill="#911D26" sketch:type="MSShapeGroup"></path>
                    <path d="M40.2315762,31.5911523 C50.9217381,31.5911523 59.5879665,40.2573808 59.5879665,50.9475427 C59.5879665,61.6377046 50.9217381,70.303933 40.2315762,70.303933 C29.5414143,70.303933 20.8751859,61.6377046 20.8751859,50.9475427 C20.8751859,40.2573808 29.5414143,31.5911523 40.2315762,31.5911523" id="Fill-11" fill="#911D26" sketch:type="MSShapeGroup"></path>
                    <path d="M91.5944921,82.352696 L129.032481,82.352696 C129.032481,82.352696 130.646923,62.3897873 110.471549,62.3897873 C90.2947048,62.3890522 91.5944921,82.352696 91.5944921,82.352696" id="Fill-13" fill="#911D26" sketch:type="MSShapeGroup"></path>
                    <path d="M108.944593,31.5911523 C119.634755,31.5911523 128.300984,40.2573808 128.300984,50.9475427 C128.300984,61.6377046 119.634755,70.303933 108.944593,70.303933 C98.2544313,70.303933 89.5882028,61.6377046 89.5882028,50.9475427 C89.5882028,40.2573808 98.2544313,31.5911523 108.944593,31.5911523" id="Fill-15" fill="#911D26" sketch:type="MSShapeGroup"></path>
                    <path d="M45.9438764,83.0746367 L105.492952,83.0746367 C105.492952,83.0746367 107.933729,51.139423 76.4087425,51.139423 C44.884491,51.139423 45.9438764,83.0746367 45.9438764,83.0746367" id="Fill-17" fill="#E0393E" sketch:type="MSShapeGroup"></path>
                    <g id="Group-21">
                        <mask id="mask-2" sketch:name="Clip 20" fill="white">
                            <use xlink:href="#path-1"></use>
                        </mask>
                        <g id="Clip-20"></g>
                        <path d="M106.048744,35.3420089 C103.593998,51.8643044 88.209752,63.2668496 71.6903972,60.8143099 C55.1636908,58.3588295 43.7640862,42.9745831 46.2166259,26.4515525 C48.6721063,9.93146254 64.0534121,-1.47475859 80.5764427,0.980721817 C97.0994733,3.43399671 108.499813,18.8182431 106.048744,35.3420089" id="Fill-19" fill="#E0393E" sketch:type="MSShapeGroup" mask="url(#mask-2)"></path>
                    </g>
                    <path d="M59.7916097,36.3344935 C59.7916097,36.3344935 67.7072257,47.1172873 76.7586853,47.306227 C85.8094096,47.4973721 93.7213498,36.3344935 93.7213498,36.3344935" id="Stroke-22" stroke="#FFFFFF" stroke-width="6" stroke-linecap="round" sketch:type="MSShapeGroup"></path>
                </g>
            </g>
        </g>
    </g>
</svg>
