<?xml version="1.0" encoding="UTF-8" standalone="no"?>
<svg width="114px" height="117px" viewBox="0 0 114 117" version="1.1" xmlns="http://www.w3.org/2000/svg" xmlns:xlink="http://www.w3.org/1999/xlink" xmlns:sketch="http://www.bohemiancoding.com/sketch/ns">
    <!-- Generator: Sketch 3.5.2 (25235) - http://www.bohemiancoding.com/sketch -->
    <title>price-tag copy</title>
    <desc>Created with Sketch.</desc>
    <defs></defs>
    <g id="yes" stroke="none" stroke-width="1" fill="none" fill-rule="evenodd" sketch:type="MSPage">
        <g id="step-3-copy" sketch:type="MSArtboardGroup" transform="translate(-453.000000, -189.000000)" fill="#6F8DA1">
            <g id="price-tag-copy" sketch:type="MSLayerGroup" transform="translate(453.000000, 189.000000)">
                <path d="M112.008428,2.36925 C111.35803,0.53235 109.348242,-0.43875 107.502518,0.1989 C105.656794,0.83655 104.684127,2.86065 105.322806,4.7034 C110.766227,20.3229 99.9614182,31.9878 91.7230448,38.2356 L88.3948825,33.4737 C87.2757294,31.87665 84.7737483,30.5487 82.828414,30.5253 L64.1485175,30.6072 C62.2031832,30.5721 59.314479,31.4613 57.7207112,32.5845 L2.67712657,71.11845 C0.0110811189,72.99045 -0.633457343,76.6584 1.22984476,79.33185 L26.2437965,115.06365 C28.1188175,117.7254 31.1129916,117.40365 33.7848965,115.54335 L88.8284811,77.00355 C90.4105301,75.8862 92.2386755,73.476 92.883214,71.63325 L98.7309357,53.235 C99.3754741,51.3981 98.9828916,48.59595 97.8637385,46.9989 L95.836372,44.0973 C106.898996,35.63235 118.383499,20.6739 112.008428,2.36925 L112.008428,2.36925 Z M86.3968133,57.11355 C82.137,60.09705 76.2541217,59.05575 73.2716664,54.79695 C70.2774923,50.52645 71.3204727,44.65305 75.5861455,41.65785 C78.9729021,39.2886 83.3674825,39.45825 86.5315804,41.7573 C84.9378126,42.7167 83.8420972,43.2783 83.6370168,43.36605 C81.8733252,44.2026 81.1174573,46.31445 81.9494979,48.0753 C82.5588797,49.35645 83.8303783,50.1111 85.1546119,50.1111 C85.6585238,50.1111 86.1741545,49.9941 86.6604881,49.76595 C87.7972196,49.22775 89.0159832,48.5901 90.2874818,47.83545 C90.8558476,51.31035 89.4730196,54.9549 86.3968133,57.11355 L86.3968133,57.11355 Z" id="Shape" sketch:type="MSShapeGroup"></path>
            </g>
        </g>
    </g>
</svg>
